<?xml version="1.0" encoding="UTF-8" standalone="no"?>
<!DOCTYPE svg PUBLIC "-//W3C//DTD SVG 1.1//EN" "http://www.w3.org/Graphics/SVG/1.1/DTD/svg11.dtd">
<!-- Created with Vectornator (http://vectornator.io/) -->
<svg height="100%" stroke-miterlimit="10" style="fill-rule:nonzero;clip-rule:evenodd;stroke-linecap:round;stroke-linejoin:round;" version="1.1" viewBox="0 0 512 512" width="100%" xml:space="preserve" xmlns="http://www.w3.org/2000/svg" xmlns:xlink="http://www.w3.org/1999/xlink">
<defs/>
<g id="Layer-1">
<path d="M238.106 3.21616C171.905 17.9472 144.996 94.9299 187.514 147.955C193.688 155.657 199.151 160.344 210.03 167.274C225.177 176.927 220.112 180.836 192.46 180.834C165.921 180.834 166.555 180.301 166.555 202.678C166.555 224.151 165.702 223.425 191.978 224.327C221.194 225.331 217.851 210.057 217.421 340.589L217.062 449.505L213.722 449.977C198.851 452.08 152.025 421.367 136.06 399.038C135.493 398.244 133.527 395.701 131.688 393.386C127.604 388.243 116.748 370.599 116.748 369.105C116.748 368.511 115.486 365.548 113.943 362.52C110.231 355.24 110.364 354.209 115.54 350.159C126.487 341.591 108.567 322.946 85.1816 318.573C51.2498 312.226 46.0851 315.807 40.1068 349.829C36.0878 372.693 46.3742 394.749 57.9643 388.124C64.2012 384.56 64.2766 384.614 70.5296 397.05C147.164 549.469 369.217 548.952 441.766 396.186C447.186 384.773 448.296 384.109 454.199 388.753L458.119 391.836L464.115 385.212C474.982 373.21 475.608 355.579 466.103 329.319L461.702 317.163L454.804 316.213C451.009 315.692 445.211 315.665 441.915 316.154C424.87 318.682 416.788 320.316 416.138 321.369C415.742 322.01 414.244 322.536 412.811 322.536C411.378 322.536 409.995 323.008 409.736 323.588C409.48 324.167 407.375 325.603 405.06 326.781C394.219 332.298 389.359 345.803 396.464 350.669C401.179 353.902 401.188 353.929 399.141 358.917C390.352 380.338 372.674 405.335 357.421 417.919C355.072 419.856 351.888 422.59 350.344 423.992C348.801 425.395 345.328 427.887 342.629 429.532C339.928 431.175 337.401 432.906 337.017 433.379C333.244 437.994 303.762 450.595 298.222 449.963L294.225 449.505L293.865 340.589C293.434 210.025 290.195 225.09 318.753 224.891C344.698 224.709 344.541 224.837 345.199 203.584C345.622 189.89 345.389 188.172 342.641 184.679L339.619 180.836L318.146 180.836C289.053 180.836 286.009 177.469 304.048 165.245C384.378 110.805 332.08-17.6978 238.106 3.21616M264.202 44.773C287.079 49.1116 306.15 70.4243 306.15 91.6543C306.15 145.004 232.849 160.586 209.775 112.141C204.996 102.106 203.551 84.5555 207.061 79.195C208.318 77.2789 209.346 74.7414 209.346 73.5562C209.346 72.3728 209.976 71.403 210.748 71.403C211.52 71.403 212.151 70.4566 212.151 69.2983C212.151 68.1418 212.783 67.1936 213.555 67.1936C214.325 67.1936 214.958 66.4053 214.959 65.4409C214.963 63.3973 225.47 53.1648 227.566 53.1648C228.347 53.1648 228.986 52.5327 228.986 51.7623C228.986 50.9901 229.626 50.3579 230.405 50.3579C231.184 50.3579 234.5 49.1332 237.771 47.6355C247.178 43.3273 253.165 42.6809 264.202 44.773" fill="#000000" fill-rule="evenodd" opacity="1" stroke="none"/>
</g>
</svg>
