<?xml version="1.0" encoding="UTF-8" standalone="no"?>
<!DOCTYPE svg PUBLIC "-//W3C//DTD SVG 1.1//EN" "http://www.w3.org/Graphics/SVG/1.1/DTD/svg11.dtd">
<!-- Created with Vectornator (http://vectornator.io/) -->
<svg height="100%" stroke-miterlimit="10" style="fill-rule:nonzero;clip-rule:evenodd;stroke-linecap:round;stroke-linejoin:round;" version="1.1" viewBox="0 0 512 512" width="100%" xml:space="preserve" xmlns="http://www.w3.org/2000/svg" xmlns:xlink="http://www.w3.org/1999/xlink">
<defs/>
<g id="Layer-1">
<path d="M331.407 95.7994C317.177 95.9322 303.679 96.065 301.408 96.0947L297.28 96.1482L297.28 112.11L297.28 128.074L323.104 128.074C343.33 128.074 349.008 128.173 349.289 128.531C349.848 129.249 359.77 169.437 359.496 169.879C359.116 170.496 194.376 170.43 193.89 169.816C193.242 168.994 186.848 152.915 187.044 152.6C187.149 152.431 192.426 152.293 198.771 152.293L210.31 152.293L210.33 151.1C210.34 150.444 210.565 143.302 210.829 135.229C211.093 127.156 211.287 120.52 211.259 120.482C211.233 120.443 191.069 120.645 166.449 120.93C141.83 121.215 119.335 121.453 116.46 121.459L111.23 121.467L111.23 137.474L111.23 153.484L131.698 153.21C148.823 152.984 152.231 153.022 152.562 153.442C152.953 153.939 179.054 215.737 179.393 216.966C179.573 217.626 158.293 239.681 157.237 239.931C156.961 239.996 155.455 239.156 153.89 238.066C90.2846 193.716 2.28399 238.268 0.143868 315.903C-1.84565 388.166 71.8558 437.284 138.285 407.966C167.48 395.08 187.084 370.009 194.594 335.957L195.079 333.755L227.974 333.662L260.866 333.567L303.903 268.343C327.573 232.468 347.119 202.996 347.339 202.847C348.041 202.372 367.658 202.51 367.956 202.994C368.463 203.814 374.237 227.463 374.015 227.811C373.891 228.004 372.117 229 370.072 230.025C298.309 265.967 298.045 368.647 369.62 405.14C442.872 442.485 527.569 376.641 509.545 296.361C499.189 250.237 460.522 220.073 411.244 219.679L405.029 219.629L389.751 158.531C381.347 124.927 374.358 96.9785 374.215 96.4217L373.96 95.413L365.619 95.4863C361.032 95.526 345.635 95.6667 331.407 95.7994M314.827 203.265C314.627 204.452 249.062 303.5 248.545 303.395C247.978 303.28 207.256 203.42 207.569 202.913C208.053 202.13 314.958 202.481 314.827 203.265M204.078 275.425C211.027 291.926 214.701 301.071 214.469 301.303C214.251 301.521 210.139 301.62 203.864 301.56L193.613 301.463L193.153 299.444C191.699 293.063 191.003 290.43 189.854 286.968C187.543 280.01 184.529 273.396 180.994 267.519C179.964 265.802 179.118 264.199 179.118 263.956C179.118 263.361 192.291 249.904 192.874 249.904C193.129 249.904 198.044 261.096 204.078 275.425M106.825 252.266C111.688 253.065 115.459 254.05 119.852 255.669C124.822 257.5 133.705 262.261 134.118 263.314C134.199 263.524 125.947 272.193 115.78 282.579L97.2935 301.463L97.2896 317.518L97.2856 333.571L128.854 333.571C156.252 333.571 160.453 333.642 160.631 334.11C160.929 334.885 158.769 341.192 156.67 345.673C140.954 379.243 101.12 393.308 67.744 377.071C34.5206 360.909 21.1408 320.982 37.8417 287.834C50.6448 262.42 79.156 247.72 106.825 252.266M419.477 251.769C466.615 256.172 493.975 305.466 472.75 347.757C455.613 381.902 412.318 394.166 379.518 374.166C342.278 351.459 336.799 299.396 368.51 269.565C373.71 264.673 381.359 259.344 382.106 260.091C382.314 260.3 386.277 275.635 390.912 294.169C395.545 312.701 399.388 327.918 399.451 327.979C399.622 328.151 429.524 320.667 429.859 320.368C430.019 320.227 426.337 304.866 421.679 286.231C417.02 267.598 413.293 252.131 413.396 251.862C413.621 251.271 414.075 251.265 419.477 251.769M157.102 290.402C158.743 294.018 160.877 300.468 160.639 301.089C160.384 301.755 143.015 301.945 142.609 301.285C142.331 300.837 154.809 288.068 155.525 288.068C155.812 288.068 156.521 289.118 157.102 290.402" fill="#000000" fill-rule="evenodd" opacity="1" stroke="none"/>
</g>
</svg>
