<?xml version="1.0" encoding="UTF-8" standalone="no"?>
<!DOCTYPE svg PUBLIC "-//W3C//DTD SVG 1.1//EN" "http://www.w3.org/Graphics/SVG/1.1/DTD/svg11.dtd">
<!-- Created with Vectornator (http://vectornator.io/) -->
<svg height="100%" stroke-miterlimit="10" style="fill-rule:nonzero;clip-rule:evenodd;stroke-linecap:round;stroke-linejoin:round;" version="1.1" viewBox="0 0 512 512" width="100%" xml:space="preserve" xmlns="http://www.w3.org/2000/svg" xmlns:xlink="http://www.w3.org/1999/xlink">
<defs/>
<g id="Layer-1">
<path d="M294.605 96.5258C250.61 96.4533 208.232 98.2215 184.98 98.2133C147.777 98.2002 115.849 99.0367 105.636 100.276C82.6303 103.067 64.6977 101.5 44.6362 139.088C23.1031 179.433 30.7695 306.256 36.8862 318.276C41.166 326.686 63.0929 323.214 75.0737 323.307C75.0723 323.456 75.0424 323.595 75.0424 323.745C75.0424 349.021 95.5467 369.526 120.824 369.526C146.101 369.526 166.605 349.022 166.605 323.745C166.605 323.734 166.605 323.724 166.605 323.713C216.147 323.699 280.442 324.009 326.449 323.776C326.447 323.914 326.418 324.043 326.417 324.182C326.417 349.459 346.922 369.963 372.199 369.963C397.476 369.963 417.949 349.459 417.949 324.182C417.949 323.85 417.862 323.544 417.855 323.213C429.299 323.128 481.127 337.163 481.605 275.12C481.895 237.459 457.453 232.44 425.167 232.026L393.636 158.651C415.433 151.989 448.637 148.83 447.449 129.182C445.799 101.91 367.929 96.6467 294.605 96.5258ZM103.605 137.807L168.667 137.807C174.446 137.807 179.136 142.603 179.136 148.495L179.136 193.432C179.136 199.324 174.446 204.088 168.667 204.088L103.605 204.088C97.8261 204.088 93.1362 199.324 93.1362 193.432L93.1362 148.495C93.1362 142.603 97.8261 137.807 103.605 137.807ZM214.855 137.807L279.917 137.807C285.696 137.807 290.386 142.603 290.386 148.495L290.386 193.432C290.386 199.324 285.696 204.088 279.917 204.088L214.855 204.088C209.076 204.088 204.386 199.324 204.386 193.432L204.386 148.495C204.386 142.603 209.076 137.807 214.855 137.807ZM353.949 154.807C359.778 154.618 366.202 157.192 373.074 163.713C400.219 189.475 409.645 235.438 389.042 240.213C373.72 243.764 356.059 245.737 337.886 238.432C321.972 232.035 321.346 220.78 323.136 197.87C324.479 180.687 336.46 155.375 353.949 154.807ZM120.761 298.713C133.257 298.713 143.386 308.843 143.386 321.338C143.386 333.834 133.257 343.963 120.761 343.963C108.266 343.963 98.1362 333.834 98.1362 321.338C98.1362 308.843 108.266 298.713 120.761 298.713ZM372.042 298.713C384.538 298.713 394.667 308.843 394.667 321.338C394.667 333.834 384.538 343.963 372.042 343.963C359.547 343.963 349.417 333.834 349.417 321.338C349.417 308.843 359.547 298.713 372.042 298.713Z" fill="#000000" fill-rule="nonzero" opacity="1" stroke="none"/>
</g>
</svg>
