<?xml version="1.0" encoding="UTF-8" standalone="no"?>
<!DOCTYPE svg PUBLIC "-//W3C//DTD SVG 1.1//EN" "http://www.w3.org/Graphics/SVG/1.1/DTD/svg11.dtd">
<!-- Created with Vectornator (http://vectornator.io/) -->
<svg height="100%" stroke-miterlimit="10" style="fill-rule:nonzero;clip-rule:evenodd;stroke-linecap:round;stroke-linejoin:round;" version="1.1" viewBox="0 0 512 512" width="100%" xml:space="preserve" xmlns="http://www.w3.org/2000/svg" xmlns:xlink="http://www.w3.org/1999/xlink">
<defs/>
<g id="Layer-1">
<path d="M297.107 98.9435C247.709 101.508 209.924 125.345 176.906 174.778C152.734 210.962 144.87 214.892 98.9209 213.731C51.6564 212.536 28.35 220.358 13.713 242.323C0.0685194 262.793-3.51303 299.109 3.83805 342.424L4.32929 345.319L18.3222 345.442L32.3175 345.564L32.6784 349.043C34.9066 370.51 43.0672 386.698 57.4034 398.097C99.9836 431.95 161.86 405.659 166.843 351.597L167.396 345.564L235.361 345.447C272.74 345.381 303.475 345.487 303.663 345.677C303.851 345.87 304.23 348.429 304.506 351.364C306.28 370.229 315.09 387.097 328.895 398.075C372.094 432.419 434.243 405.158 438.554 349.973L438.9 345.564L475.45 345.444C495.553 345.379 512 345.236 512 345.126C512 344.336 507.381 323.724 505.531 316.25C470.969 176.758 391.633 94.0411 297.107 98.9435M320.313 138.09C355.961 143.616 389.212 166.437 416.047 203.791C422.138 212.27 432.634 229.476 432.634 230.982C432.634 231.519 413.16 231.619 307.085 231.619C212.27 231.619 181.537 231.486 181.537 231.08C181.537 230.784 183.505 228.604 185.911 226.233C192.274 219.962 196.317 214.699 206.643 199.26C235.057 156.772 256.269 142.148 296.641 137.218C300.097 136.797 315.664 137.371 320.313 138.09M108.899 301.187C142.11 308.065 156.77 346.69 136.418 373.698C114.312 403.032 67.4814 395.132 56.3157 360.184C45.6938 326.945 74.9227 294.152 108.899 301.187M382.588 301.623C434.549 315.518 425.04 391.661 371.367 391.485C325.759 391.338 308.375 332.797 346.484 307.691C356.758 300.924 371.016 298.528 382.588 301.623" fill="#000000" fill-rule="evenodd" opacity="1" stroke="none"/>
</g>
</svg>
