<?xml version="1.0" encoding="UTF-8" standalone="no"?>
<!DOCTYPE svg PUBLIC "-//W3C//DTD SVG 1.1//EN" "http://www.w3.org/Graphics/SVG/1.1/DTD/svg11.dtd">
<!-- Created with Vectornator (http://vectornator.io/) -->
<svg height="100%" stroke-miterlimit="10" style="fill-rule:nonzero;clip-rule:evenodd;stroke-linecap:round;stroke-linejoin:round;" version="1.1" viewBox="0 0 512 512" width="100%" xml:space="preserve" xmlns="http://www.w3.org/2000/svg" xmlns:xlink="http://www.w3.org/1999/xlink">
<defs/>
<g id="Layer-1">
<path d="M225.792 95.3383C78.6995 104.634 5.8496 161.236 1.42403 269.667C-0.418116 314.805 16.1218 342.252 51.0863 352.076C64.9481 355.972 69.156 356.251 119.692 356.638L167.35 357L167.894 362.67C169.242 376.72 175.258 389.195 185.695 399.586C222.116 435.844 284.173 413.435 289.192 362.215L289.715 356.882L393.675 356.666L497.636 356.452L500.807 354.74C509.774 349.902 510.714 347.02 510.714 324.353C510.714 304.458 510.352 302.375 506.115 297.946C500.422 291.992 502.584 292.282 461.825 292.013L425.219 291.771L426.406 288.447C435.637 262.567 441.565 188.075 436.254 164.654C428.4 130.009 393.347 107.569 333.578 98.9201C308.351 95.2705 254.957 93.4962 225.792 95.3383M197.758 174.218C202.19 176.509 202.41 178.112 202.41 207.848C202.41 236.808 202.177 238.751 198.355 241.428C195.239 243.611 96.0927 243.368 92.4841 241.169C88.4528 238.71 88.1768 236.338 88.4434 206.288C88.7036 176.76 88.7241 176.642 93.9083 173.978C97.0974 172.338 194.559 172.563 197.758 174.218M383.179 175.961L385.491 178.549L385.491 207.504C385.491 238.912 385.371 239.852 381.154 241.773C379.607 242.478 365.022 242.721 324.043 242.721L269.01 242.721L266.422 240.409L263.834 238.097L263.607 209.337C263.359 177.97 263.465 177.08 267.734 174.461C270.075 173.025 272.448 172.972 325.52 173.167L380.867 173.372L383.179 175.961M484.483 304.313C495.567 308.261 501.31 321.859 496.496 332.758C486.959 354.349 455.646 347.906 455.646 324.353C455.646 308.313 469.225 298.877 484.483 304.313M234.273 326.831C258.107 331.892 266.78 359.997 249.986 377.755C233.046 395.665 202.45 385.707 198.542 361.011C195.326 340.681 214.249 322.578 234.273 326.831" fill="#000000" fill-rule="evenodd" opacity="1" stroke="none"/>
</g>
</svg>
