<?xml version="1.0" encoding="UTF-8" standalone="no"?>
<!DOCTYPE svg PUBLIC "-//W3C//DTD SVG 1.1//EN" "http://www.w3.org/Graphics/SVG/1.1/DTD/svg11.dtd">
<!-- Created with Vectornator (http://vectornator.io/) -->
<svg height="100%" stroke-miterlimit="10" style="fill-rule:nonzero;clip-rule:evenodd;stroke-linecap:round;stroke-linejoin:round;" version="1.1" viewBox="0 0 512 512" width="100%" xml:space="preserve" xmlns="http://www.w3.org/2000/svg" xmlns:xlink="http://www.w3.org/1999/xlink">
<defs/>
<g id="Layer-1">
<path d="M89.9107 55.7162C79.5918 57.788 70.1479 63.4533 57.8229 74.962C42.6082 89.1719 39.6563 91.2315 21.6626 100.203C0.915751 110.548-2.48585 116.188 3.13103 130.925C12.53 155.58 42.0082 172.713 61.975 165.121C66.3122 163.473 66.7411 164.668 65.866 175.962C64.6676 191.424 69.5322 197.003 88.7192 202.177C102.429 205.876 103.962 209.608 107.311 247.468C108.608 262.136 109.71 266.93 115.685 283.945C135.572 340.57 136.317 361.95 119.323 388.172C105.847 408.965 105.725 419.049 118.95 419.049C139.636 419.049 153.827 394.572 158.114 351.498C161.744 315.042 164.165 315.721 164.132 353.186C164.101 390.266 162.648 402.536 156.033 421.617C146.501 449.108 151.605 459.144 170.47 450.011C192.965 439.12 202.655 408.998 197.975 364.506C195.834 344.166 198.916 334.888 209.838 328.787C218.348 324.031 270.361 313.669 285.72 313.669C346.398 313.669 387.724 357.948 370.907 404.941C361.105 432.33 363.496 441.371 379.306 436.694C400.38 430.459 409.177 400.972 400.163 366.79C393.346 340.944 397.073 341.575 421.081 370.339C439.834 392.807 443.194 403.215 438.529 424.391C432.62 451.215 440.014 462.538 458.082 454.331C481.596 443.651 483.747 412.875 464.045 369.061C449.261 336.185 448.213 332.211 442.523 287.537C440.268 269.82 438.083 254.773 437.666 254.098C435.67 250.868 439.798 253.479 444.81 258.614C454.274 268.314 459.665 279.07 467.661 304.211C478.421 338.042 492.088 360.956 501.506 360.956C520.714 360.956 510.27 310.738 481.983 267.082C456.638 227.97 447.163 220.274 394.227 195.822L367.488 183.469L339.946 182.468C303.61 181.146 306.015 181.983 306.015 170.677C306.015 120.786 242.078 113.53 233.833 162.484L233.015 167.345L226.172 166.264C205.754 163.035 198.037 158.043 188.109 141.628C173.664 117.744 130.18 66.1372 118.92 59.5156C112.581 55.7854 98.6473 53.9609 89.9107 55.7162M279.689 150.204C290.569 156.929 290.081 174.857 278.861 180.661C266.095 187.261 251.973 178.833 251.973 164.611C251.973 150.892 267.633 142.752 279.689 150.204" fill="#000000" fill-rule="evenodd" opacity="1" stroke="none"/>
</g>
</svg>
