<?xml version="1.0" encoding="UTF-8" standalone="no"?>
<!DOCTYPE svg PUBLIC "-//W3C//DTD SVG 1.1//EN" "http://www.w3.org/Graphics/SVG/1.1/DTD/svg11.dtd">
<!-- Created with Vectornator (http://vectornator.io/) -->
<svg height="100%" stroke-miterlimit="10" style="fill-rule:nonzero;clip-rule:evenodd;stroke-linecap:round;stroke-linejoin:round;" version="1.1" viewBox="0 0 512 512" width="100%" xml:space="preserve" xmlns="http://www.w3.org/2000/svg" xmlns:vectornator="http://vectornator.io" xmlns:xlink="http://www.w3.org/1999/xlink">
<defs/>
<g id="Layer-1" vectornator:layerName="Layer 1">
<path d="M256 0C225.047 0 201.415 22.1594 194.094 56.125C187.365 87.3433 224.781 122.781 224.781 122.781C224.781 122.781 96.1505 72.2213 56.0312 69.125C15.912 66.0287 24.3202 102.819 36.4062 119.438C48.4923 136.056 72.75 150.937 72.75 150.938C72.75 150.938 46.4354 169.425 63.2812 190.156C80.1271 210.888 109.187 218.563 109.188 218.562C109.188 218.562 98.0951 238.711 114.625 253.094C131.155 267.477 178.406 265.344 178.406 265.344C178.406 265.344 113.561 477.886 134.188 497.188C144.962 507.27 195.094 512 256 512C316.906 512 367.038 507.27 377.812 497.188C398.439 477.886 333.594 265.344 333.594 265.344C333.594 265.344 380.845 267.477 397.375 253.094C413.905 238.711 402.812 218.562 402.812 218.562C402.812 218.563 431.873 210.888 448.719 190.156C465.565 169.425 439.25 150.938 439.25 150.938C439.25 150.937 463.508 136.056 475.594 119.438C487.68 102.819 496.088 66.0287 455.969 69.125C415.85 72.2213 287.219 122.781 287.219 122.781C287.219 122.781 324.635 87.3433 317.906 56.125C310.585 22.1594 286.953 0 256 0Z" fill="#221b26" fill-rule="nonzero" opacity="1" stroke="none" vectornator:layerName="Curve 1"/>
</g>
</svg>
