<?xml version="1.0" encoding="UTF-8" standalone="no"?>
<!DOCTYPE svg PUBLIC "-//W3C//DTD SVG 1.1//EN" "http://www.w3.org/Graphics/SVG/1.1/DTD/svg11.dtd">
<!-- Created with Vectornator (http://vectornator.io/) -->
<svg height="100%" stroke-miterlimit="10" style="fill-rule:nonzero;clip-rule:evenodd;stroke-linecap:round;stroke-linejoin:round;" version="1.1" viewBox="0 0 512 512" width="100%" xml:space="preserve" xmlns="http://www.w3.org/2000/svg" xmlns:xlink="http://www.w3.org/1999/xlink">
<defs/>
<clipPath id="ArtboardFrame">
<rect height="512" width="512" x="0" y="0"/>
</clipPath>
<g clip-path="url(#ArtboardFrame)" id="Layer-1">
<path d="M253.117 1.06934C251.345 2.46066 107.952 231.8 106.084 236.225L104.711 239.481L104.711 372.407L104.711 505.336L106.271 507.379C109.191 511.208 103.024 510.96 191.028 510.805L270.59 510.665L272.089 509.162L273.592 507.663L273.863 449.172C274.127 392.061 274.159 390.664 275.185 389.913C276.962 388.615 345.297 388.784 346.878 390.094L348.024 391.041L348.156 449.409L348.287 507.777L350.056 509.355L351.824 510.934L376.189 510.934C402.855 510.934 402.613 510.96 405.664 507.718L407.289 505.991L407.289 372.466L407.289 238.94L406.167 236.234C404.019 231.054 259.974 1.30318 258.439 0.604595C256.387-0.330743 254.71-0.184596 253.117 1.06934M260.979 36.2907C277.304 39.7251 285.704 56.9558 278.368 71.9533C268.474 92.1742 238.844 89.7043 232.121 68.098C226.611 50.3938 242.866 32.4792 260.979 36.2907M187.187 237.102C189.967 238.069 189.964 238.034 189.964 264.589C189.964 291.159 189.899 291.825 187.318 292.655C184.115 293.687 148.809 292.626 147.97 291.474C147.333 290.603 147.201 286.096 147.201 265.054C147.201 238.648 147.26 237.967 149.537 237.049C151.323 236.33 185.109 236.377 187.187 237.102M244.754 238.008L245.985 239.241L245.985 264.922L245.985 290.603L244.754 291.834C242.977 293.611 209.822 293.792 207.881 292.035C206.572 290.849 206.046 240.981 207.32 238.601C208.334 236.707 209.948 236.546 226.892 236.66C243.404 236.774 243.529 236.783 244.754 238.008M188.879 311.201C189.932 312.253 189.964 313.005 189.964 337.429C189.964 364.255 189.914 364.77 187.292 365.854C184.387 367.058 150.142 366.348 148.873 365.059C147.859 364.024 147.795 362.814 147.426 338.454L147.04 312.937L148.449 311.528L149.858 310.117L168.828 310.117C187.076 310.117 187.839 310.161 188.879 311.201M244.956 311.257C245.938 312.344 245.985 313.583 245.985 338.098L245.985 363.799L244.441 365.126L242.898 366.456L225.96 366.298C210.185 366.152 208.942 366.07 207.881 365.109C206.341 363.714 206.063 313.493 207.586 311.321C208.875 309.479 243.293 309.421 244.956 311.257" fill="#000000" fill-rule="evenodd" opacity="1" stroke="none"/>
</g>
</svg>
