<?xml version="1.0" encoding="UTF-8" standalone="no"?>
<!DOCTYPE svg PUBLIC "-//W3C//DTD SVG 1.1//EN" "http://www.w3.org/Graphics/SVG/1.1/DTD/svg11.dtd">
<!-- Created with Vectornator (http://vectornator.io/) -->
<svg height="100%" stroke-miterlimit="10" style="fill-rule:nonzero;clip-rule:evenodd;stroke-linecap:round;stroke-linejoin:round;" version="1.1" viewBox="0 0 512 512" width="100%" xml:space="preserve" xmlns="http://www.w3.org/2000/svg" xmlns:vectornator="http://vectornator.io" xmlns:xlink="http://www.w3.org/1999/xlink">
<defs/>
<g id="Layer-1" vectornator:layerName="Layer 1">
<path d="M322.741 88.5965C310.793 87.4319 300.184 96.1491 299.02 108.098C297.855 120.046 306.573 130.655 318.521 131.819L375.491 137.382L378.24 152.791C354.201 158.406 331.169 165.811 317.498 175.681C298.247 189.581 284.58 235.962 221.718 223.316C158.856 210.669 180.221 156.533 143.201 166.73C57.8839 190.229 33.898 148.287 3.85201 163.008C-20.6394 175.007 76.5481 182.915 156.993 250.626C177.957 268.272 189.571 308.659 197.549 322.357L176.769 322.293C167.197 289.28 137.037 265.004 100.938 265.004C57.174 265.004 21.7174 300.46 21.7174 344.224C21.7173 387.987 57.1739 423.508 100.938 423.508C137.209 423.508 167.479 398.977 176.897 365.707L229.327 365.963C229.668 365.964 229.948 365.785 230.286 365.771C239.524 366.599 253.385 362.974 277.025 353.687C367.576 318.113 310.244 324.65 373.509 258.354C386.043 245.218 385.981 245.043 393.138 237.318L399.404 272.548C372.345 285.154 353.496 312.413 353.496 344.224C353.496 387.987 389.016 423.508 432.78 423.508C476.543 423.508 512 387.987 512 344.224C512 303.742 481.558 270.741 442.371 265.963L430.478 198.827C432.926 197.23 435.889 195.662 441.348 192.497C462.985 179.952 460.531 201.059 467.882 192.305C475.234 183.552 486.138 135.513 462.639 138.661C454.317 139.775 438.448 141.945 420.887 144.735L415.388 113.597C413.689 103.992 405.851 96.6399 396.143 95.6937L322.741 88.5965ZM100.938 296.398C119.318 296.398 135.066 306.895 143.073 322.101L101.833 321.909C89.8275 321.855 80.0841 331.579 80.0295 343.584C79.9749 355.59 89.6356 365.333 101.641 365.387L143.521 365.579C135.656 381.216 119.635 392.05 100.938 392.05C74.5223 392.05 53.1113 370.639 53.1113 344.224C53.1113 317.809 74.5223 296.398 100.938 296.398ZM448.253 299.211C467.024 305.669 480.606 323.259 480.606 344.224C480.606 370.639 459.195 392.05 432.78 392.05C406.365 392.05 384.954 370.639 384.954 344.224C384.954 328.124 392.965 313.952 405.158 305.285L411.36 340.132C413.452 351.953 424.73 359.871 436.552 357.779C448.374 355.687 456.291 344.408 454.199 332.587L448.253 299.211Z" fill="#221b26" fill-rule="nonzero" opacity="0.991276" stroke="none" vectornator:layerName="Courbe 2"/>
</g>
</svg>
