<?xml version="1.0" standalone="no"?>
<!DOCTYPE svg PUBLIC "-//W3C//DTD SVG 20010904//EN"
 "http://www.w3.org/TR/2001/REC-SVG-20010904/DTD/svg10.dtd">
<svg version="1.0" xmlns="http://www.w3.org/2000/svg"
 width="507.000000pt" height="489.000000pt" viewBox="0 0 507.000000 489.000000"
 preserveAspectRatio="xMidYMid meet">

<g transform="translate(0.000000,489.000000) scale(0.100000,-0.100000)"
fill="#000000" stroke="none">
<path d="M2095 4805 c-86 -23 -109 -59 -205 -322 -45 -125 -86 -232 -90 -236
-4 -5 -33 38 -65 95 -96 171 -134 224 -179 249 -62 35 -126 32 -207 -9 -113
-57 -163 -120 -161 -203 1 -60 14 -90 107 -250 42 -72 74 -133 72 -135 -2 -3
-106 14 -230 36 -125 22 -247 40 -272 40 -56 0 -101 -18 -139 -56 -35 -36 -44
-57 -63 -158 -12 -65 -13 -87 -3 -123 15 -51 72 -113 133 -142 27 -13 198 -47
477 -97 239 -42 436 -77 436 -78 1 0 86 -147 189 -326 103 -179 196 -340 207
-357 l20 -33 -414 0 -413 1 -292 348 c-270 323 -296 351 -349 377 -69 34 -141
37 -194 9 -60 -31 -138 -105 -161 -152 -26 -53 -22 -133 7 -180 10 -15 87
-110 171 -210 84 -100 153 -184 153 -187 0 -3 -83 -6 -185 -6 -232 0 -270 -12
-316 -102 -27 -53 -27 -223 0 -276 46 -90 84 -102 316 -102 102 0 185 -3 185
-6 0 -3 -69 -87 -153 -187 -84 -100 -161 -195 -171 -210 -29 -47 -33 -127 -7
-180 23 -47 101 -121 161 -152 53 -28 125 -25 194 9 53 26 79 54 349 377 l292
348 413 1 414 0 -20 -32 c-11 -18 -104 -179 -207 -358 -103 -179 -188 -326
-189 -326 0 -1 -197 -36 -436 -78 -279 -50 -450 -84 -477 -97 -61 -29 -118
-91 -133 -142 -10 -36 -9 -58 3 -123 19 -101 28 -122 63 -158 38 -38 83 -56
139 -56 25 0 147 18 272 40 124 22 228 39 230 36 2 -2 -30 -63 -72 -135 -93
-160 -106 -190 -107 -250 -2 -83 48 -146 161 -203 81 -41 145 -44 207 -9 45
25 83 78 179 249 32 57 61 100 65 95 4 -4 45 -111 90 -236 96 -265 119 -299
208 -322 45 -12 60 -12 110 1 144 37 209 96 223 203 11 78 9 85 -160 548
l-143 391 202 351 c111 193 206 351 210 351 4 0 99 -158 210 -351 l202 -351
-143 -391 c-169 -463 -171 -470 -160 -548 14 -107 79 -166 223 -203 50 -13 65
-13 110 -1 89 23 112 57 208 322 45 125 86 232 90 236 4 5 33 -38 65 -95 96
-171 134 -224 179 -249 62 -35 126 -32 207 9 113 57 163 120 161 203 -1 60
-14 90 -107 250 -42 72 -74 133 -72 135 2 3 106 -14 230 -36 244 -43 300 -47
350 -26 39 16 86 62 99 96 6 14 23 94 39 178 37 201 48 219 204 350 146 121
171 160 162 247 -3 29 -14 66 -23 82 -10 15 -87 110 -171 210 -84 100 -153
184 -153 187 0 3 83 6 185 6 232 0 270 12 316 102 27 53 27 223 0 276 -46 90
-84 102 -316 102 -102 0 -185 3 -185 6 0 3 69 87 153 187 84 100 161 195 171
210 29 47 33 127 7 180 -23 47 -101 121 -161 152 -53 28 -125 25 -194 -9 -53
-26 -79 -54 -349 -377 l-292 -348 -413 -1 -414 0 20 33 c11 17 104 178 207
357 103 179 188 326 189 326 0 1 197 36 436 78 279 50 450 84 477 97 61 29
118 91 133 142 10 36 9 58 -3 123 -19 101 -28 122 -63 158 -38 38 -83 56 -139
56 -25 0 -147 -18 -272 -40 -124 -22 -228 -39 -230 -36 -2 2 30 63 72 135 93
160 106 190 107 250 2 83 -48 146 -161 203 -81 41 -145 44 -207 9 -45 -25 -83
-78 -179 -249 -32 -57 -61 -100 -65 -95 -4 4 -45 111 -90 236 -96 265 -119
299 -208 322 -45 12 -60 12 -110 -1 -144 -37 -209 -96 -223 -203 -11 -78 -9
-85 160 -548 l143 -391 -202 -351 c-111 -193 -206 -351 -210 -351 -4 0 -99
158 -210 351 l-202 351 143 391 c169 463 171 470 160 548 -13 100 -67 155
-186 192 -80 25 -97 26 -150 12z m1933 -2876 l243 -291 -76 -134 c-67 -117
-79 -133 -98 -129 -12 3 -179 32 -372 66 -192 34 -351 62 -351 63 -1 0 -86
147 -189 326 -103 179 -196 340 -207 358 l-20 32 414 0 413 -1 243 -290z"/>
</g>
</svg>
