<?xml version="1.0" encoding="UTF-8" standalone="no"?>
<!DOCTYPE svg PUBLIC "-//W3C//DTD SVG 1.1//EN" "http://www.w3.org/Graphics/SVG/1.1/DTD/svg11.dtd">
<!-- Created with Vectornator (http://vectornator.io/) -->
<svg height="100%" stroke-miterlimit="10" style="fill-rule:nonzero;clip-rule:evenodd;stroke-linecap:round;stroke-linejoin:round;" version="1.1" viewBox="0 0 512 512" width="100%" xml:space="preserve" xmlns="http://www.w3.org/2000/svg" xmlns:xlink="http://www.w3.org/1999/xlink">
<defs/>
<clipPath id="ArtboardFrame">
<rect height="512" width="512" x="0" y="0"/>
</clipPath>
<g clip-path="url(#ArtboardFrame)" id="Layer-1">
<path d="M247.66 0.927608C211.589 8.34055 205.86 52.9051 238.095 75.331C241.557 77.7384 241.908 78.9005 241.908 87.965C241.908 101.425 240.973 102.334 223.454 105.892C181.204 114.476 151.318 131.158 121.047 163.054C102.434 182.665 105.24 182.132 83.948 170.112C64.0674 158.888 65.5602 158.814 58.34 171.378C51.2861 183.651 51.1992 183.458 67.9373 192.91C90.3897 205.591 90.9245 206.54 84.7813 222.861C70.2011 261.596 70.2257 310.465 84.8456 349.304C90.4917 364.307 90.2347 364.802 71.0439 375.877C51.6716 387.054 51.1481 387.962 57.6597 399.105C65.101 411.839 64.9461 411.825 83.5172 401.387C104.052 389.845 105.161 389.847 115.172 401.408C144.956 435.805 181.497 457.053 224.732 465.12C241.02 468.158 241.026 468.168 241.908 492.351L242.645 512.602L255.067 513.035C270.449 513.572 269.905 514.376 269.933 491.057C269.961 468.366 269.661 468.756 290.39 464.6C332.66 456.125 366.849 435.931 395.94 402.253C407.005 389.441 408.447 389.403 428.955 401.389C446.872 411.863 446.751 411.876 454.011 398.827C460.583 387.017 461.09 387.939 441.939 376.818C421.232 364.795 421.376 365.141 428.356 343.907C441.757 303.137 441.334 259.532 427.171 221.904C421.208 206.062 420.845 206.633 446.355 191.754C460.302 183.619 460.614 182.761 453.849 171.216C446.751 159.109 446.521 159.099 427.313 170.127C406.474 182.092 408.823 182.447 392.573 164.882C362.677 132.562 326.062 112.11 286.735 105.767C271.724 103.345 269.956 101.513 269.956 88.3864L269.956 78.2599L277.648 72.5155C312.517 46.4767 289.81-7.73626 247.66 0.927608M263.329 22.3955C278.75 28.8391 277.663 51.9547 261.692 57.2248C238.998 64.7152 226.988 30.4301 249.459 22.3029C256.109 19.8974 257.367 19.905 263.329 22.3955M238.977 147.252C241.84 150.114 241.938 151.813 241.56 192.479L241.169 234.731L230.835 241.11C225.151 244.618 219.958 247.518 219.293 247.552C217.254 247.658 148.287 207.489 146.32 205.049C136.4 192.753 181.786 157.193 219.989 147.329C234.028 143.705 235.425 143.699 238.977 147.252M289.672 146.577C316.894 153.48 338.815 166.061 357.698 185.62C373.47 201.958 374.211 200.837 331.221 225.68C289.577 249.742 292.383 248.595 285.592 244.338C282.639 242.486 278.077 239.616 275.458 237.96L270.694 234.95L270.303 192.589C269.82 140.271 269.336 141.42 289.672 146.577M165.4 249.168C209.365 274.483 205 270.447 205 285.771L205 298.632L168.011 319.881C125.162 344.497 125.1 344.51 120.404 330.253C107.298 290.475 114.325 227.02 131.447 230.534C132.806 230.814 148.085 239.198 165.4 249.168M388.255 234.329C404.743 256.662 399.413 340.619 381.505 340.619C379.073 340.619 313.95 303.536 309.392 299.556C307.175 297.619 306.824 295.246 307.179 284.636L307.6 272.019L337.864 254.506C386.048 226.627 383.363 227.702 388.255 234.329M271.22 258.049C282.801 264.653 289.708 280.429 286.367 292.648C277.329 325.704 230.089 323.571 225.036 289.876C221.241 264.579 249.055 245.413 271.22 258.049M227.649 327.702C230.434 329.529 234.781 332.156 237.311 333.537L241.908 336.052L241.908 378.447C241.908 424.868 241.645 426.305 233.189 426.188C199.262 425.723 131.734 378.26 146.885 365.526C152.667 360.666 216.387 324.556 219.329 324.472C221.119 324.421 224.864 325.875 227.649 327.702M328.135 343.074C373.652 369.166 373.565 369.05 358.902 384.381C338.987 405.199 307.185 422.3 282.282 425.582C269.812 427.224 269.835 427.311 270.301 377.451L270.694 335.597L280.29 330.068C293.323 322.56 291.471 322.058 328.135 343.074" fill="#000000" fill-rule="evenodd" opacity="1" stroke="none"/>
</g>
</svg>
