<?xml version="1.0" encoding="UTF-8" standalone="no"?>
<!DOCTYPE svg PUBLIC "-//W3C//DTD SVG 1.1//EN" "http://www.w3.org/Graphics/SVG/1.1/DTD/svg11.dtd">
<svg width="100%" height="100%" viewBox="0 0 591 591" version="1.1" xmlns="http://www.w3.org/2000/svg" xmlns:xlink="http://www.w3.org/1999/xlink" xml:space="preserve" xmlns:serif="http://www.serif.com/" style="fill-rule:evenodd;clip-rule:evenodd;stroke-linejoin:round;stroke-miterlimit:2;">
    <g id="Layer-1" transform="matrix(11.8135,0,0,11.8135,-0.120053,-0.0634241)">
        <path d="M32.364,9.355C30.974,9.368 29.656,9.381 29.434,9.384L29.031,9.389L29.031,12.507L31.553,12.507C33.528,12.507 34.083,12.517 34.11,12.552C34.165,12.622 35.134,16.547 35.107,16.59C35.07,16.65 18.982,16.644 18.935,16.584C18.871,16.503 18.247,14.933 18.266,14.902C18.276,14.886 18.792,14.872 19.411,14.872L20.538,14.872L20.54,14.756C20.541,14.692 20.563,13.994 20.589,13.206C20.615,12.418 20.633,11.77 20.631,11.766C20.628,11.762 18.659,11.782 16.255,11.81C13.851,11.837 11.654,11.861 11.373,11.861L10.862,11.862L10.862,14.989L12.861,14.962C14.533,14.94 14.866,14.944 14.899,14.985C14.937,15.033 17.486,21.068 17.519,21.188C17.536,21.253 15.458,23.406 15.355,23.431C15.328,23.437 15.181,23.355 15.028,23.249C8.817,18.918 0.223,23.268 0.014,30.85C-0.18,37.907 7.017,42.704 13.504,39.84C16.355,38.582 18.27,36.134 19.003,32.808L19.051,32.593L25.475,32.575L29.678,26.205C31.99,22.702 33.898,19.824 33.92,19.809C33.988,19.763 35.904,19.776 35.933,19.824C35.983,19.904 36.547,22.213 36.525,22.247C36.513,22.266 36.34,22.363 36.14,22.463C29.132,25.973 29.106,36.001 36.096,39.564C43.249,43.211 51.52,36.781 49.76,28.942C48.749,24.437 44.973,21.492 40.161,21.453L39.554,21.448L38.062,15.482C37.241,12.2 36.558,9.471 36.544,9.416L36.52,9.318L35.705,9.325C35.257,9.329 33.753,9.342 32.364,9.355ZM30.745,19.85C30.725,19.966 24.322,29.639 24.272,29.628C24.217,29.617 20.24,19.865 20.27,19.816C20.318,19.739 30.758,19.774 30.745,19.85ZM19.929,26.897C20.608,28.508 20.967,29.401 20.944,29.424C20.923,29.445 20.521,29.455 19.909,29.449L18.908,29.44L18.863,29.243C18.721,28.619 18.653,28.362 18.54,28.024C18.315,27.345 18.02,26.699 17.675,26.125C17.575,25.957 17.492,25.801 17.492,25.777C17.492,25.719 18.778,24.405 18.835,24.405C18.86,24.405 19.34,25.498 19.929,26.897ZM10.432,24.635C10.907,24.713 11.275,24.81 11.704,24.968C12.19,25.146 13.057,25.611 13.097,25.714C13.105,25.735 12.3,26.581 11.307,27.596L9.501,29.44L9.501,32.575L12.583,32.575C15.259,32.575 15.669,32.582 15.687,32.628C15.716,32.704 15.505,33.32 15.3,33.757C13.765,37.035 9.875,38.409 6.616,36.823C3.371,35.245 2.065,31.346 3.695,28.109C4.946,25.627 7.73,24.191 10.432,24.635ZM40.965,24.587C45.568,25.017 48.24,29.831 46.167,33.961C44.493,37.295 40.265,38.493 37.062,36.54C33.426,34.322 32.891,29.238 35.987,26.325C36.495,25.847 37.242,25.327 37.315,25.4C37.335,25.42 37.722,26.917 38.175,28.727C38.627,30.537 39.003,32.023 39.009,32.029C39.026,32.046 41.946,31.315 41.978,31.286C41.994,31.272 41.634,29.772 41.18,27.952C40.725,26.133 40.361,24.622 40.371,24.596C40.393,24.538 40.437,24.538 40.965,24.587ZM15.342,28.36C15.502,28.713 15.711,29.343 15.687,29.403C15.662,29.468 13.966,29.487 13.927,29.422C13.9,29.379 15.118,28.132 15.188,28.132C15.216,28.132 15.285,28.234 15.342,28.36Z"/>
    </g>
</svg>
